<?xml version="1.0" standalone="no"?>
<!DOCTYPE svg PUBLIC "-//W3C//DTD SVG 1.1//EN" "http://www.w3.org/Graphics/SVG/1.1/DTD/svg11.dtd" >
<svg xmlns="http://www.w3.org/2000/svg">
<metadata>
Created by FontForge 20120731 at Tue Oct 20 15:35:32 2015
 By Ads
</metadata>
<defs>
<font id="iconfont" horiz-adv-x="1024" >
  <font-face 
    font-family="iconfont"
    font-weight="500"
    font-stretch="normal"
    units-per-em="1024"
    panose-1="2 0 6 3 0 0 0 0 0 0"
    ascent="812"
    descent="-212"
    x-height="792"
    bbox="0 -212 1122 813"
    underline-thickness="50"
    underline-position="-100"
    unicode-range="U+0078-E61F"
  />
<missing-glyph horiz-adv-x="374" 
d="M34 0v682h272v-682h-272zM68 34h204v614h-204v-614z" />
    <glyph glyph-name=".notdef" horiz-adv-x="374" 
d="M34 0v682h272v-682h-272zM68 34h204v614h-204v-614z" />
    <glyph glyph-name=".null" horiz-adv-x="0" 
 />
    <glyph glyph-name="nonmarkingreturn" horiz-adv-x="341" 
 />
    <glyph glyph-name="x" unicode="x" horiz-adv-x="1001" 
d="M281 543q-27 -1 -53 -1h-83q-18 0 -36.5 -6t-32.5 -18.5t-23 -32t-9 -45.5v-76h912v41q0 16 -0.5 30t-0.5 18q0 13 -5 29t-17 29.5t-31.5 22.5t-49.5 9h-133v-97h-438v97zM955 310v-52q0 -23 0.5 -52t0.5 -58t-10.5 -47.5t-26 -30t-33 -16t-31.5 -4.5q-14 -1 -29.5 -0.5
t-29.5 0.5h-32l-45 128h-439l-44 -128h-29h-34q-20 0 -45 1q-25 0 -41 9.5t-25.5 23t-13.5 29.5t-4 30v167h911zM163 247q-12 0 -21 -8.5t-9 -21.5t9 -21.5t21 -8.5q13 0 22 8.5t9 21.5t-9 21.5t-22 8.5zM316 123q-8 -26 -14 -48q-5 -19 -10.5 -37t-7.5 -25t-3 -15t1 -14.5
t9.5 -10.5t21.5 -4h37h67h81h80h64h36q23 0 34 12t2 38q-5 13 -9.5 30.5t-9.5 34.5q-5 19 -11 39h-368zM336 498v228q0 11 2.5 23t10 21.5t20.5 15.5t34 6h188q31 0 51.5 -14.5t20.5 -52.5v-227h-327z" />
    <glyph glyph-name="uniE600" unicode="&#xe600;" 
d="M882 132v-47q0 -23 -5 -40t-18 -27t-39 -10v-61q0 -26 -18 -44t-44 -18t-43.5 18t-17.5 44v61h-372v-61q0 -26 -17.5 -44t-43.5 -18t-44 18t-18 44v61q-25 0 -38 10t-18 27t-5.5 39t-0.5 48v556q0 26 10 48.5t27 39t39 26.5t48 10h494q26 0 48 -10t39 -26.5t27 -39
t10 -48.5v-556zM385 751q-12 0 -21 -9t-9 -22q0 -14 9 -23t21 -9h252q12 0 21 9t9 23q0 13 -9 22t-21 9h-252zM293 122q18 0 31.5 13.5t13.5 32t-13.5 32t-31.5 13.5q-20 0 -33 -13.5t-13 -32t13 -32t33 -13.5zM725 124q18 0 30.5 13t12.5 30.5t-12.5 30.5t-30.5 13
t-30.5 -13t-12.5 -30.5t12.5 -30.5t30.5 -13zM820 627h-618v-247h618v247z" />
    <glyph glyph-name="uniE601" unicode="&#xe601;" 
d="M938 -27l-214 216q-2 2 -8 7q18 28 30.5 59t19.5 65.5t7 69.5q0 98 -47.5 180t-129 130t-177.5 48q-58 0 -112 -18t-98 -51t-76.5 -77t-50.5 -98.5t-18 -113.5q0 -97 47.5 -179t129 -130t178.5 -48q104 0 193 58q4 -6 6 -8l214 -216q22 -22 53 -22q15 0 28.5 5.5
t24.5 16.5q22 22 22 53t-22 53zM419 146q-101 0 -172 71.5t-71 173t71 173t171.5 71.5t171.5 -71.5t71 -173.5q0 -49 -19 -94.5t-51.5 -78t-77.5 -52t-94 -19.5z" />
    <glyph glyph-name="uniE602" unicode="&#xe602;" 
d="M512 747q-91 0 -173.5 -35.5t-142.5 -95.5t-95.5 -143t-35.5 -174t35.5 -173.5t95.5 -142.5t142.5 -95.5t173.5 -35.5t174 35.5t143 95.5t95.5 142.5t35.5 173.5t-35.5 174t-95.5 143t-143 95.5t-174 35.5zM572.5 -33q-10.5 -10 -23 -14.5t-26.5 -4.5q-31 0 -52 19
q-10 10 -15 22t-5 26q0 29 20.5 48.5t51.5 19.5q29 0 49.5 -19.5t20.5 -48.5q0 -14 -5 -26t-15.5 -22zM697 358q-20 -36 -44 -62q-12 -13 -23 -24.5t-20 -20.5q-20 -18 -20 -31v-32q0 -5 -5 -9t-16 -7q-6 -2 -13.5 -3t-15 -1.5t-15.5 -0.5q-12 -1 -23.5 0t-21.5 4
q-5 1 -9 2.5t-6.5 3t-4 3.5t-1.5 4v73q0 5 5.5 12t15.5 16l14 12q7 6 15 13t16 15q12 11 23 23.5t21.5 26t15.5 27.5t5 29q0 17 -7 32.5t-22 28.5q-29 26 -78 26q-16 0 -28.5 -2.5t-21.5 -7.5q-6 -3 -11 -6.5t-9 -8t-7 -9.5q-4 -7 -7 -14.5t-3 -15.5q-2 -17 -2 -29
q0 -11 -5.5 -19.5t-16 -14.5t-22 -9.5t-23.5 -4.5q-25 -2 -46 8t-21 35q0 6 0.5 13t1.5 15t2 17t3 18q7 38 29 73q12 17 28.5 32t38.5 27.5t51 18.5t66 6q64 0 108 -19q15 -6 28.5 -13.5t24.5 -16.5t21 -18q28 -29 41.5 -64t13.5 -67q0 -48 -20 -84z" />
    <glyph glyph-name="uniE603" unicode="&#xe603;" 
d="M788 514q0 72 -35.5 133.5t-97 97t-133.5 35.5q-110 0 -188 -78t-78 -188q0 -71 36 -133l230 -465l230 465q36 62 36 133zM522 381q-55 0 -94 39t-39 94q0 36 18 67t48.5 48.5t66.5 17.5q55 0 94 -39t39 -94t-39 -94t-94 -39z" />
    <glyph glyph-name="uniE604" unicode="&#xe604;" 
d="M512 748q-46 0 -89.5 -12t-80.5 -33.5t-68 -52.5t-52.5 -68t-33.5 -80.5t-12 -89.5q0 -52 34.5 -129t84 -149.5t99 -137.5t83.5 -104.5t35 -39.5q14 15 36.5 41.5t80.5 101t102.5 141.5t80.5 145.5t36 130.5q0 137 -95 235q-105 97 -241 101zM514 190q-93 0 -158.5 65.5
t-65.5 158.5t65.5 158.5t158.5 65.5q61 0 112.5 -30t81.5 -81.5t30 -112.5q0 -26 -6 -51.5t-17 -47.5t-26.5 -41.5t-35 -34.5t-41.5 -26.5t-47 -17t-51 -5.5zM514 550q-58 0 -99 -41t-41 -99t41 -99t99 -41t99 41t41 99q0 19 -5 37.5t-14 33.5t-22 28t-28.5 22t-33.5 14
t-37 5z" />
    <glyph glyph-name="uniE605" unicode="&#xe605;" 
d="M132 473q0 50 1 64q0 1 2 2.5t4 1.5q4 1 28 1v30q1 38 38 38h120h13q0 8 1 20q2 43 28 75t68 42q6 1 15 1q72 1 120 0q8 0 16 -1t15.5 -3.5t14.5 -6t13.5 -8t12.5 -9.5t12 -12q33 -36 31 -87q0 -6 2 -8.5t9 -2.5h121q40 0 40 -40v-28q24 0 27 -1q2 0 4.5 -2t2.5 -4
q1 -4 1 -9v-8v-8v-9v-9v-8v-10l-10 -1h-16h-19h-15q-12 1 -10 -10v-8v-122v-127v-120v-125q0 -56 -42 -88q-9 -7 -19 -11.5t-21 -7t-22 -2.5h-412q-30 0 -53.5 14t-37 38.5t-13.5 54.5v250v250q0 12 -1 13t-13 1h-56zM270 211v-249q0 -41 39 -41q238 -1 406 0q7 0 14 2.5
t13 6.5q12 8 12 34v497q0 7 -2.5 9.5t-9.5 2.5q-151 -1 -272 -1q-72 0 -188 1q-7 0 -9.5 -2t-2.5 -10v-250zM613 611q6 26 -9 46.5t-41 21.5q-54 1 -103 0q-16 -1 -29.5 -11t-18.5 -25.5t-1 -31.5h202zM408 -9h-68v412h68v-412zM616 403h67v-412h-67v412zM479 403h66v-412
h-66v412z" />
    <glyph glyph-name="uniE606" unicode="&#xe606;" 
d="M397 733l377 -396l4 -4q3 -3 5.5 -7t4 -8t2.5 -9t1 -9t-1 -9t-2.5 -9t-4 -8t-5.5 -7l-381 -400q-3 -3 -6.5 -6t-7.5 -4.5t-8.5 -2.5t-9 -1t-8.5 1t-8 2.5t-8 4.5t-7 6l-63 67q-13 13 -13 32.5t13 33.5l285 300l-285 300q-13 14 -13 33.5t13 32.5l63 67q7 7 15 10.5
t16.5 3.5t17 -3.5t14.5 -10.5z" />
    <glyph glyph-name="uniE607" unicode="&#xe607;" 
d="M512 -212l-21 19q-11 10 -27.5 26t-56.5 57t-77 82.5t-81 98.5t-75.5 108.5t-52.5 107.5t-21 102q0 111 55 206t150 150.5t207 55.5q67 0 130 -21t113.5 -59t88.5 -88.5t59 -113.5t21 -130q0 -36 -13 -78.5t-34 -83t-51 -85t-59.5 -82.5t-64 -77.5t-61 -67.5t-53 -54.5
t-37.5 -37t-18 -16.5zM512 739q-32 0 -63 -6t-59 -16.5t-54.5 -25.5t-49 -34.5t-42 -42.5t-34.5 -49t-26 -54.5t-16.5 -59.5t-5.5 -62q0 -54 37.5 -128t96 -148t112 -133t104.5 -107q50 48 104 107t112.5 133t96 148t37.5 128q0 95 -47 175.5t-127.5 127.5t-175.5 47z
M512 236q-70 0 -120 50t-50 120t50 119.5t120 49.5t120 -49.5t50 -119.5q0 -46 -23 -85.5t-62 -62t-85 -22.5zM511.5 513q-44.5 0 -76 -31.5t-31.5 -76t31.5 -76t76 -31.5t76 31.5t31.5 76t-31.5 76t-76 31.5z" />
    <glyph glyph-name="uniE608" unicode="&#xe608;" 
d="M512 684q-158 0 -271 -113t-113 -271t113 -271t271 -113t271 113t113 271t-113 271t-271 113zM512 -20q-134 0 -227 93t-93 227t93 227t227 93t227 -93t93 -227t-93 -227t-227 -93zM640 326h-96v192q0 14 -9 23t-23 9q-10 0 -17 -4t-11 -11.5t-4 -16.5v-224q0 -10 4 -17
t11 -11t17 -4v0h128q14 0 23 8.5t9 23t-9 23.5t-23 9z" />
    <glyph glyph-name="uniE609" unicode="&#xe609;" 
d="M573 614q11 -4 22.5 -7.5t21.5 -8.5q56 -23 93.5 -59t57.5 -82q19 -44 21.5 -93.5t-10.5 -98.5q-2 -11 -6 -22l-8 -22l-79 24q4 10 7.5 20t6.5 21q19 77 -8 138q-28 66 -107 98q-8 4 -17.5 7t-19.5 6zM660 -113l46 23q-6 29 -19 60.5t-29 59t-33 53.5t-33 45t-28 31
t-19 14l-24 -12l-24 -13l-36 -18l-7 -4l-56 -28q-38 58 -62 103t-36.5 75.5t-44.5 115.5l49 25l72 37l20 10q8 34 -34.5 143.5t-81.5 141.5l-41 -21l-37 -18l-21 -11l-21 -11q-108 -57 -95 -149v-3q39 -202 120.5 -366.5t218.5 -312.5q67 -65 177 -11l28 15l51 26v0z
M556 417q-30 10 -58.5 -4.5t-38 -45t5 -59t45 -38t59 5t38 45t-5.5 59t-45 37.5zM625 778l-25 -78q24 -6 46 -14q59 -23 107 -63.5t79 -95.5q68 -120 37 -268q-4 -16 -8.5 -32.5t-10.5 -32.5l79 -25q13 37 20 73q38 178 -45 326q-26 45 -61 82.5t-77.5 66t-90.5 46.5
q-25 9 -50 15z" />
    <glyph glyph-name="uniE60A" unicode="&#xe60a;" 
d="M429 -212zM427 346l4 -5q34 -40 67 -67l24 -18l23 18q0 1 1.5 2t3.5 3t5 4.5t7 6.5t8.5 8t9.5 9t10 10.5t10.5 11.5t11.5 13l2 2q1 1 2 3q102 133 118 225q2 18 2 29q1 88 -64 151q-20 19 -44 32.5t-51 20.5t-56 7q-87 0 -150 -60q-65 -63 -65 -152q0 -11 3 -28
q16 -94 118 -226zM521.5 750q65.5 0 112 -46t46.5 -110q0 -8 -2 -21q-13 -75 -100 -187l-1 -1q-12 -15 -26 -29t-22 -21l-8 -6q-28 22 -55 55l-1 1l-1 1q-22 29 -41 58t-36 64.5t-22 63.5q-1 6 -1.5 11.5t-0.5 7.5v2q0 65 46.5 111t112 46zM800 533v-40v-13v-7l83 32v-379
l-240 -76l-301 113l-191 -86v383l78 29v5v5v7v54l-142 -52v-526l255 115l297 -115l298 83v526z" />
    <glyph glyph-name="uniE60B" unicode="&#xe60b;" 
d="M512 813q-83 0 -161.5 -26t-141.5 -73t-110 -110t-73 -141.5t-26 -161.5q0 -104 40.5 -199t109 -163.5t163.5 -109t199 -40.5t199 40.5t163.5 109t109 163.5t40.5 199q0 83 -26 161.5t-73 141.5t-110 110t-141.5 73t-161.5 26zM512 -147q-91 0 -174 35.5t-143 95.5
t-95.5 143t-35.5 174t35.5 174t95.5 143t143 95.5t174 35.5t174 -35.5t143 -95.5t95.5 -143t35.5 -174q0 -73 -22.5 -141.5t-64 -123.5t-96.5 -96.5t-123.5 -64t-141.5 -22.5zM412 410q1 4 2.5 10.5t10 23t19.5 28.5t33.5 20t49.5 5q35 -4 53.5 -18t21 -31t0 -30t-7.5 -21
q-4 -11 -56 -55.5t-60 -64.5q-7 -15 -10.5 -41t-3.5 -43v-18h89q1 1 0 7.5t1.5 19t6 25.5t13.5 26.5t24 21.5q13 8 26.5 19.5t28 26.5t25.5 33.5t18 37.5t7 40.5t-9 41.5q-22 34 -44 56t-47 32t-47.5 12.5t-54.5 1.5q-41 -1 -75 -14.5t-63.5 -49t-41.5 -90.5zM463 142h93
v-102h-93v102z" />
    <glyph glyph-name="uniE60C" unicode="&#xe60c;" 
d="M881 572h-725q-19 0 -32.5 -13.5t-13.5 -31.5v-454q0 -12 6.5 -22.5t16.5 -16.5t23 -6h725q12 0 22.5 6t16.5 16.5t6 22.5v454q0 18 -13 31.5t-32 13.5zM896 73q0 -6 -4.5 -10.5t-10.5 -4.5h-725q-14 2 -15 15v287h755v-287zM896 391h-755v60h755v-60zM896 481h-755v46
q0 2 0.5 4t1.5 3l2 4q1 1 3 2t4 1.5t4 0.5h725q4 0 7.5 -2t5.5 -5.5t2 -7.5v-46zM503 149h-302v-30h302v30zM382 240h-181v-31h181v31zM745 119h61q12 0 21 8.5t9 20.5v2q0 12 -9 20.5t-21 8.5h-61q-8 0 -15 -4t-11 -10.5t-4 -14.5v-2q0 -6 2.5 -11.5t6.5 -9.5t9.5 -6
t11.5 -2z" />
    <glyph glyph-name="uniE60D" unicode="&#xe60d;" 
d="M834 82h-113q-31 0 -60 20t-40 49l-41 107q-5 2 -11 5t-15 6.5t-19.5 5.5t-19.5 2q-30 0 -71 -19l-41 -107q-11 -29 -40 -49t-60 -20h-113q-31 0 -58 21.5t-34 51.5l-29 120q-7 32 11 55q7 9 17 14.5t22 7.5q1 1 1.5 1t0.5 1l252 139q3 2 7 1q12 -3 22 -13q7 -9 10.5 -23
t-0.5 -34q-4 -21 -12 -31q-10 -12 -24 -12t-29 13h-1q-8 0 -23 -10l-40 -31h99q1 1 2.5 1.5t3.5 0.5h253q2 0 3.5 -0.5t3.5 -1.5h99l-41 31q-5 3 -12 6.5t-11 3.5q-15 -13 -30 -13q-14 0 -23 12q-9 10 -13 31q-4 20 -0.5 34t11.5 23q9 10 21 13q4 1 8 -1l251 -139l3 -3
q21 -5 33 -21q9 -11 11.5 -25t-0.5 -30l-29 -120q-2 -10 -7 -19t-12 -17.5t-15 -15.5q-27 -21 -58 -21zM594 275q4 -2 5 -5l43 -111q8 -22 31.5 -38.5t47.5 -16.5h113q9 0 18.5 3t17.5 8.5t15 12t12 15t7 17.5l29 120q5 22 -6.5 36.5t-33.5 14.5h-252l-6 2h-241q-2 -2 -6 -2
h-257q-22 0 -33 -15q-6 -7 -7.5 -16t0.5 -20l29 -120q5 -23 26 -39.5t44 -16.5h113q24 0 47.5 16.5t31.5 38.5l43 111q2 4 5 5q5 3 14 7t31 10.5t40 6.5q8 0 16.5 -1t15.5 -3t14.5 -5t13 -5t10.5 -4.5t6.5 -3.5t2.5 -2v0zM781 355h78l-209 116q-18 -10 -11 -43q5 -24 14 -24
q7 0 16 7q6 5 14 5q16 0 36 -14h1zM170 355h78l62 47q20 14 36 14h4l4 -2q2 0 3.5 -1t2.5 -2q10 -7 16 -7t9.5 7t4.5 17q4 19 0 29t-11 14z" />
    <glyph glyph-name="uniE60E" unicode="&#xe60e;" horiz-adv-x="1123" 
d="M561.5 -58q-11.5 0 -53.5 42t-42 53q0 18 36 31t59.5 13t59 -13t35.5 -31q0 -11 -41.5 -53t-53 -42zM715 97q-1 0 -22.5 14t-58 28.5t-73.5 14.5t-73.5 -14.5t-57.5 -28.5t-23 -14q-10 0 -53.5 42.5t-43.5 53.5q0 7 6 13q45 44 112 69t133 25t133.5 -25t111.5 -69
q6 -6 6 -13q0 -11 -43 -53.5t-54 -42.5zM871 252q-6 0 -13 5q-77 60 -143.5 88t-153.5 28q-48 0 -97 -12.5t-85.5 -30t-65 -35.5t-45 -30.5t-17.5 -12.5q-10 0 -53 43t-43 53q0 7 6 13q76 75 183 116.5t217 41.5t217.5 -41.5t182.5 -116.5q6 -6 6 -13q0 -10 -43 -53t-53 -43
zM1026 407q-6 0 -12 5q-103 90 -213 135.5t-240 45.5t-240 -45.5t-212 -135.5q-7 -5 -13 -5q-10 0 -53 43t-43 53q0 7 6 13q107 106 254 164.5t301 58.5t301.5 -58.5t254.5 -164.5q5 -6 5 -13q0 -10 -43 -53t-53 -43z" />
    <glyph glyph-name="uniE60F" unicode="&#xe60f;" 
d="M0 812v-384h384v384h-384zM640 812v-384h384v384h-384zM0 172v-384h384v384h-384zM640 172v-384h384v384h-384z" />
    <glyph glyph-name="uniE610" unicode="&#xe610;" 
d="M0 812v-256h256v256h-256zM384 812v-256h256v256h-256zM768 812v-256h256v256h-256zM0 428v-256h256v256h-256zM384 428v-256h256v256h-256zM768 428v-256h256v256h-256zM0 44v-256h256v256h-256zM384 44v-256h256v256h-256zM768 44v-256h256v256h-256z" />
    <glyph glyph-name="uniE611" unicode="&#xe611;" 
d="M0 684v-128h1024v128h-1024zM0 304v-128h1024v128h-1024zM0 -80v-128h1024v128h-1024z" />
    <glyph glyph-name="uniE612" unicode="&#xe612;" 
d="M959 599q0 40 -20 74.5t-54 54.5t-75 20h-597q-62 0 -105.5 -43.5t-43.5 -105.5v-597q0 -62 43.5 -105.5t105.5 -43.5h597q62 0 105.5 43.5t43.5 105.5v597zM885 28q0 -42 -30 -72t-72 -30h-544q-13 0 -26.5 4t-24.5 10.5t-20.5 15.5t-16 20.5t-10 24.5t-3.5 27v543
q0 43 29.5 72.5t71.5 29.5h544q42 0 72 -29.5t30 -72.5v-543zM592 410q0 58 -41 98.5t-100 40.5q-3 0 -10 -1h-125h-63v-509h71v233h116q4 -1 11 -1q39 0 71.5 18.5t51 50.5t18.5 70zM440 343h-116v134h116q26 -1 46 -21t20 -45t-20 -46t-46 -22zM766 165l-8 9l-26 69
q-3 9 -12 14.5t-16 5.5h-134q-7 0 -15.5 -5.5t-12.5 -14.5l-26 -69l-8 -9q-1 -3 -2 -4.5t-1.5 -5.5t-1 -11t-0.5 -18q0 -37 13 -44l6 -3v-28q0 -7 2 -9.5t8 -2.5h19q6 0 8 0.5t4.5 2.5t2.5 6v27h143v-27q0 -6 3 -7.5t11 -1.5h19q6 0 8 2.5t2 9.5v28l6 3q13 7 13 44
q0 14 -1 22.5t-1.5 10.5t-2.5 6zM539.5 179q0.5 1 3 11.5t5.5 22t5 16.5q1 5 7.5 10.5t14.5 5.5h125q7 0 13.5 -5.5t8.5 -10.5q2 -7 7 -29l5 -21q1 -4 -3 -5h-188l-3 2q-1 2 -0.5 3zM553 111q-7 0 -11.5 5t-4.5 12t4.5 12t11.5 5t12 -5t5 -12q0 -3 -1.5 -6t-3.5 -5.5t-5 -4
t-7 -1.5zM664 102h-54v9h54v-9zM664 120h-54v9h54v-9zM664 138h-54v9h54v-9zM722 111q-7 0 -12 5t-5 12q0 5 2 9t6 6t9 2q6 0 11 -5t5 -12q0 -4 -2 -8t-6 -6.5t-8 -2.5z" />
    <glyph glyph-name="uniE613" unicode="&#xe613;" 
d="M878 -147h-123l-26 58h-440l-26 -58h-123l126 182q-37 10 -61 41.5t-24 72.5v418q0 8 1.5 16t4.5 15.5t7 15.5q13 22 32 41q9 9 18.5 17t19.5 15q19 13 34 20q7 3 14.5 6.5t16.5 7.5q3 1 7 3l8 2l8 4q4 1 8.5 2t9.5 2q24 6 55.5 10t73.5 4q47 0 83.5 -4.5t63.5 -11.5
t47 -16q11 -5 20.5 -9.5t18 -9.5t17.5 -10.5t18 -11.5q19 -12 34.5 -28t25.5 -36q3 -6 5.5 -13.5t3.5 -15t1 -15.5v-418q0 -41 -24.5 -72.5t-61.5 -41.5zM419 686q-12 0 -20 -9q-3 -2 -4.5 -4.5t-2.5 -5t-1.5 -5.5t-0.5 -7q0 -2 0.5 -4.5t1 -4.5t1.5 -4t2.5 -4t3.5 -4
q2 -3 5.5 -4.5t7 -2.5t7.5 -1h182q6 0 11 2t10 6q8 9 8 21q0 14 -8 22q-5 4 -10 6.5t-11 2.5h-182zM240 387h537v180h-537v-180zM271 78q17 0 29.5 12t12.5 30t-13 30q-6 6 -13.5 9t-15.5 3q-18 0 -31 -12q-6 -6 -9 -13.5t-3 -16.5q0 -18 12.5 -30t30.5 -12zM702 -30l-27 60
h-332l-27 -60h386zM704 120q0 -18 12.5 -30t30.5 -12t30.5 12t12.5 30v4v3l-2 4q0 2 -0.5 3.5t-1 3.5t-1.5 4l-2 2q-1 2 -3 4l-2 2q-13 12 -31 12t-30 -12q-6 -6 -9.5 -13.5t-3.5 -16.5zM704 120z" />
    <glyph glyph-name="uniE614" unicode="&#xe614;" 
d="M916 636h-808q-45 0 -76.5 -37.5t-31.5 -90.5v-416q0 -53 31.5 -90.5t76.5 -37.5h808q45 0 76.5 37.5t31.5 90.5v416q0 35 -14.5 64.5t-39.5 46.5t-54 17zM295 109l-103 344h63l73 -254l71 254h62l-103 -344h-63zM516 109v344h59v-344h-59zM657 109v344h94q27 0 44 -1.5
t25 -3.5q25 -8 42 -34t17 -67q0 -31 -9.5 -52.5t-24.5 -34.5q-8 -6 -15.5 -10t-15.5 -6q-20 -5 -60 -5h-38v-130h-59zM716 395v-98h32q34 0 46 6q4 1 7 3.5t6 6t5 7.5q3 5 5 12t2 14q0 19 -10 31q-4 6 -10 10t-13 5q-11 3 -42 3h-28z" />
    <glyph glyph-name="uniE615" unicode="&#xe615;" 
d="M-53 853zM512 783q24 0 46.5 -7t42.5 -21t36 -33.5t27.5 -43t18 -51t6.5 -57.5h141l71 -777h-778l71 777h141q0 59 24 108t64 77t89 28zM516 292l-54 -115l-127 -17l93 -87l-24 -126l112 62l113 -62l-24 126l92 87l-127 17zM676 494q-5 -17 -13 -33t-18 -30q4 -1 6.5 -2
t6.5 -1q15 0 25 10.5t10 26.5q0 18 -17 29zM380 430q-5 5 -8 10l-7 13l-6 12q-4 6 -6.5 12.5t-4.5 13.5q-6 -4 -9.5 -11.5t-3.5 -14.5q0 -16 10.5 -26.5t25.5 -10.5q4 0 9 2zM353 570h325q0 82 -47.5 140t-115 58t-115 -58t-47.5 -140zM371 500q-4 0 -8 -1q6 -17 13.5 -33
t17.5 -29q2 2 4.5 5.5t4 6.5t2.5 7t1 9q0 25 -25 33q-6 1 -10 2zM658 500q-9 0 -17.5 -5t-13.5 -13.5t-5 -16.5q0 -18 15 -29q10 13 17.5 29t13.5 33q-3 1 -5 1.5t-5 0.5z" />
    <glyph glyph-name="uniE616" unicode="&#xe616;" 
d="M897 417q-31 75 -89 132q-24 24 -51.5 44t-57.5 35q18 41 -3.5 78.5t-78.5 58.5q8 -12 10.5 -24t-0.5 -22.5t-9.5 -20t-15.5 -17.5t-20 -15q-17 3 -34.5 4.5t-35.5 1.5q-85 0 -163 -33q-15 -6 -29 -13.5t-28 -16t-27 -18t-25 -20t-24 -22.5q-58 -57 -89 -132
q-33 -78 -33 -163t33 -163q15 -38 37.5 -71t51.5 -62q58 -58 133 -90q78 -33 163 -33t163 33q75 32 133 90t89 133q33 78 33 163q0 28 -3.5 55.5t-11 54.5t-18.5 53zM772 -6q-21 -21 -44.5 -38t-49 -30t-52.5 -21.5t-56 -13t-58 -4.5q-74 0 -141 27.5t-119 79.5t-79.5 119
t-27.5 141q0 137 90 241q21 -36 85 -61q41 78 114 107q-46 -42 -68 -122q32 -8 69 -12.5t77 -4.5q66 0 124 12t97.5 33t55.5 48q14 -17 26.5 -35t22.5 -37.5t18 -40t13 -41.5t7.5 -43t2.5 -44q0 -152 -107 -260zM390 254zM341 254q0 10 3.5 19t10.5 16t16 10.5t19 3.5
q21 0 35.5 -14.5t14.5 -34.5q0 -14 -6.5 -25.5t-18 -18t-25.5 -6.5q-20 0 -34.5 14.5t-14.5 35.5zM634 254zM584 254q0 10 4 19t10.5 16t16 10.5t19.5 3.5q20 0 34.5 -14.5t14.5 -34.5q0 -14 -6.5 -25.5t-18 -18t-24.5 -6.5q-21 0 -35.5 14.5t-14.5 35.5zM512 -36
q121 0 191 118h-382q71 -118 191 -118z" />
    <glyph glyph-name="uniE617" unicode="&#xe617;" 
d="M509 747q-74 0 -142.5 -23t-123.5 -64.5t-97 -97t-64.5 -124t-22.5 -141.5q0 -92 35.5 -175t96 -143.5t143.5 -96t174.5 -35.5t175 35.5t143.5 96t96 143.5t36 174.5t-36 175t-96 143.5t-143.5 96t-174.5 36zM244 450q15 36 45 59t71 38.5t86 21t91.5 3.5t87 -12
t74 -26.5t50.5 -37.5q4 -5 7.5 -10t6.5 -11.5t6 -13.5q8 -21 12 -44.5t4 -47.5q-19 -7 -32 -15q-4 -2 -8.5 -5t-8.5 -7l-8 -8q-12 -13 -16.5 -33.5t-1.5 -49.5l-42 17q-150 52 -294 9q-34 -11 -65 -26q3 51 -17.5 77.5t-58.5 40.5q-2 22 0.5 42t10.5 39zM836.5 213.5
q-1.5 -11.5 -6.5 -27.5t-7.5 -24.5t-9.5 -25t-9.5 -22t-10 -21.5t-8.5 -18q-1 -1 -2.5 -1.5t-2.5 -1.5q-2 -2 -4.5 -3.5t-4.5 -2.5h-13v-25q0 -8 -8 -14t-20 -6q-2 0 -4.5 0.5t-5.5 1.5q-2 0 -3.5 1t-3 1.5t-2.5 1.5q-3 3 -6 7l-2 7v25h-388v-25q0 -8 -9 -14q-4 -3 -9 -4.5
t-11 -1.5q-7 0 -13 3t-10 7.5t-4 9.5v25h-14l-4 1l-4 2q-2 0 -2.5 0.5t-1.5 0.5q-23 39 -41.5 96.5t-13.5 108.5q4 47 35 61q11 4 20.5 4t18.5 -4t17 -12q36 -34 20 -103q40 19 81 31q154 44 305 -14q41 -15 47 -21q4 6 6 13t2.5 14.5t0 13.5t-2 11t-1.5 11.5t2 14.5
q7 24 22.5 35.5t33 10t32.5 -13.5q5 -4 9 -9t6.5 -10.5t4.5 -12.5q2 -13 3 -27t-0.5 -28.5t-3 -26z" />
    <glyph glyph-name="uniE618" unicode="&#xe618;" 
d="M893 561l3 3q27 31 27 71q0 45 -32 76.5t-76 31.5h-606q-29 0 -54 -14.5t-39.5 -39t-14.5 -54.5q0 -39 26 -69l4 -6l239 -239v-259q0 -14 11 -23l1 -1l215 -174q2 -2 3.5 -3t3.5 -2t4 -1.5t4 -0.5h4q7 0 12.5 2.5t10.5 7.5q8 10 7 23v423zM178 599q-1 1 -1.5 2t-1.5 2
q-6 6 -9.5 14.5t-3.5 17.5q0 13 6.5 24t17 17.5t23.5 6.5h606q19 0 33 -14t14 -34q0 -18 -13 -32l-2 -2l-253 -254q-2 -2 -4 -4.5t-3 -5t-1.5 -5.5t-0.5 -6v-374l-154 122v260q0 12 -9 21zM178 599z" />
    <glyph glyph-name="uniE619" unicode="&#xe619;" 
d="M887 378q0 9 -3 16.5t-9 13.5t-13.5 9t-16.5 3q-11 0 -21 -5.5t-15.5 -15.5t-5.5 -21v-1l-44 -466h-73l31 461q1 2 1 4v2q0 6 -1.5 11.5t-4.5 10t-7 8.5t-8.5 6.5t-10 4t-11.5 1.5q-7 0 -13 -2t-11.5 -6t-9.5 -9t-6 -11.5t-2 -13.5l-19 -467h-72l6 467q0 11 -5.5 21
t-15.5 15.5t-21 5.5q-18 0 -30.5 -12.5t-12.5 -29.5l7 -467h-73l-19 467q0 17 -12 29.5t-30 12.5q-11 0 -21 -5.5t-15.5 -15.5t-5.5 -21v-6l31 -461h-72l-44 467q0 17 -12.5 29.5t-30.5 12.5q-5 0 -10.5 -1.5t-10.5 -4t-9 -6.5t-6.5 -8.5t-4 -10t-1.5 -11.5l1 -10l61 -503
q1 -7 6.5 -12t12.5 -5h601q8 0 13.5 5t5.5 12l61 503q1 5 1 10zM251.5 420q-17.5 0 -30 -12.5t-12.5 -29.5h21q0 9 6 15t15 6t15 -6t6 -15h22q0 17 -12.5 29.5t-30 12.5zM591 420q-9 0 -17 -3t-13.5 -9t-9 -13.5t-3.5 -16.5h21q0 9 6.5 15t15.5 6q5 0 10 -3t8 -7.5t3 -10.5
h21q0 17 -12.5 29.5t-29.5 12.5zM760 420q-17 0 -29.5 -12.5t-12.5 -29.5h21q0 9 6 15t15 6t15 -6t6 -15h22q0 11 -6 21t-15.5 15.5t-21.5 5.5zM420.5 420q-17.5 0 -30 -12.5t-12.5 -29.5h22q0 6 2.5 10.5t7.5 7.5t11 3t10.5 -3t7.5 -7.5t3 -10.5h21q0 17 -12.5 29.5
t-30 12.5zM845 548q-10 0 -19 -3q19 18 19 45q0 26 -18.5 45t-45.5 19q-26 0 -45 -19q2 4 2.5 9t0.5 10q0 26 -18.5 44.5t-45 18.5t-45 -18.5t-18.5 -44.5q0 21 -8.5 40.5t-22.5 34t-34 23t-41 8.5q-18 0 -34 -5.5t-29 -15.5t-23 -23t-15 -29t-5 -33q0 26 -19 44.5t-45 18.5
q-9 0 -17 -2t-15 -6.5t-13 -10t-10 -12.5t-6.5 -15.5t-2.5 -16.5q0 -10 3 -19q-18 19 -45 19q-26 0 -45 -19t-19 -45q0 -13 5 -24.5t14 -20.5q-9 3 -19 3q-13 0 -24.5 -5t-20 -14t-13.5 -20.5t-5 -24.5q0 -26 18.5 -45t44.5 -19q11 0 22 4v-25h615v38q2 -3 4.5 -4.5
t5.5 -3.5t6 -3t6 -2.5t7 -1.5l6 -2h7q10 0 20 3.5t18 9.5t13.5 13.5t9 17.5t3.5 20q0 26 -19 45t-45 19zM887 463h-763q-18 0 -30 -12.5t-12 -30.5v-42q0 -18 12 -30.5t30 -12.5h763q29 0 40 27l3 16v42q0 9 -3.5 17t-9 13.5t-13.5 9t-17 3.5z" />
    <glyph glyph-name="uniE61A" unicode="&#xe61a;" 
d="M512 746q-91 0 -174 -35.5t-142.5 -95t-95 -142.5t-35.5 -174t35.5 -173.5t95 -142.5t142.5 -95t173.5 -35t173.5 35t142.5 95t95 142.5t35.5 173.5q0 73 -22.5 141t-64 123t-96 96.5t-123 64t-140.5 22.5zM700 146l-34 -34l-154 154l-154 -154l-34 34l154 154l-154 154
l34 34l154 -154l154 154l34 -34l-154 -154zM512 -148q-91 0 -174 35q-81 34 -142.5 96t-95.5 142q-18 42 -26.5 85.5t-8.5 88.5q0 91 35 174q34 81 95 142q31 31 67 55t76 41q83 35 174 35t174 -35q80 -34 142 -95.5t96 -142.5q8 -20 14.5 -41.5t11 -43t7 -44t2.5 -45.5
q0 -91 -35 -174q-34 -80 -96 -142t-142 -96q-83 -35 -174 -35zM512 745q-73 0 -141 -22.5t-123 -63.5t-96 -96t-63.5 -123t-22.5 -140.5t22.5 -140.5t63.5 -123t96 -96.5t123 -64t141 -22.5q90 0 172.5 35.5t142.5 95.5t95.5 142.5t35.5 173t-35.5 173t-95.5 142.5
t-142.5 95t-172.5 35zM666 111l-154 154l-154 -154l-35 35l154 154l-154 154l35 35l154 -154l154 154l35 -35l-154 -154l154 -154zM325 146l33 -33l154 154l154 -154l33 33l-154 154l154 154l-33 33l-154 -154l-154 154l-33 -33l154 -154z" />
    <glyph glyph-name="uniE61B" unicode="&#xe61b;" 
d="M512 812q-83 0 -161.5 -26t-141.5 -73t-110 -110t-73 -141t-26 -161q0 -104 40.5 -198.5t109 -163t163.5 -108.5t199 -40t198.5 40t162.5 108.5t108 163t40 198.5q0 42 -6 83t-17.5 79t-29 73t-39.5 66.5t-49 59.5t-58 51.5t-66.5 41.5t-74.5 31t-81.5 19.5t-87.5 6.5z
M534 301q0 -10 -4.5 -18.5t-13 -13.5t-17.5 -5h-83v-209q0 -16 -10.5 -27t-25 -11t-25 11t-10.5 27v209h-83q-9 0 -17.5 5t-13 13.5t-4.5 18.5v247q0 15 10.5 26t25 11t25 -11t10.5 -26v-210h47v210q0 10 5 18.5t13 13.5t18 5q14 0 24.5 -11t10.5 -26v-210h47v210
q0 15 10.5 26t25 11t25 -11t10.5 -26v-247zM794 55q0 -16 -10 -27t-25 -11q-10 0 -18 5t-13 13.5t-5 19.5v209h-94q0 3 1 8l4 20q3 15 6.5 29.5t8 34.5t8.5 37.5t9.5 36t9.5 32.5q11 33 23.5 56t25.5 38q3 12 12 20.5t22 8.5q1 0 3 -1h2l7 1v-2q23 -9 23 -35v-493z" />
    <glyph glyph-name="uniE61C" unicode="&#xe61c;" 
d="M791 -3v-25v-12v-24q0 -25 -17.5 -43t-42.5 -18h-73q-13 0 -24 5t-19 13t-13 19t-5 24v24q0 6 1 12h-148q1 -6 1 -12v-24q0 -25 -17.5 -43t-42.5 -18h-73q-25 0 -43 18t-18 43v24q0 6 1 12l-25 22q-153 164 -168 367q7 36 33.5 62t63.5 33q8 84 57.5 146t125 92.5
t167.5 30.5t167.5 -30.5t125 -92.5t57.5 -146q37 -7 63 -33t34 -62v-2q-7 -112 -48.5 -196t-119.5 -166zM646 -52q0 -7 3 -12.5t8.5 -8.5t12.5 -3h48q10 0 17.5 7t7.5 17v24h-97v-24zM306 -52q0 -10 7 -17t17 -7h48q7 0 12.5 3t9 8.5t3.5 12.5v24h-97v-24zM512 676
q-122 0 -205.5 -57.5t-96.5 -163.5q30 -7 53 -27v1l1 -1q5 -5 18.5 -26t29.5 -48t31 -53t25 -44l10 -18h281l74 132q3 5 7 13q9 19 14 27t14 18.5t19.5 16t26.5 9.5q-4 30 -14.5 57.5t-26 50t-36.5 41t-46 32t-54 22.5t-60.5 13.5t-64.5 4.5zM909 361q-8 22 -27 35t-42 13
h-7q-3 0 -6.5 -1t-6.5 -2l-6 -2l-97 -165l-25 -48h-336l-8 5l-121 199q-19 14 -43 14t-43.5 -13t-26.5 -34v-1q15 -193 159 -340h45h73h267h73h16q75 75 115.5 153.5t46.5 184.5v2z" />
    <glyph glyph-name="uniE61D" unicode="&#xe61d;" 
d="M187 741q29 0 49 -19.5t20 -47.5v-52q0 -29 -20 -49t-49 -20h-54q-28 0 -47.5 20t-19.5 49v52q0 28 19.5 47.5t47.5 19.5h54zM890 741q28 0 47.5 -19.5t19.5 -47.5v-52q0 -29 -19.5 -49t-47.5 -20h-437q-29 0 -49 20t-20 49v52q0 28 20 47.5t49 19.5h437zM187 423
q29 0 49 -20t20 -49v-52q0 -28 -20 -48t-49 -20h-54q-28 0 -47.5 20t-19.5 48v52q0 29 19.5 49t47.5 20h54zM890 423q28 0 47.5 -20t19.5 -49v-52q0 -28 -19.5 -48t-47.5 -20h-437q-29 0 -49 20t-20 48v52q0 29 20 49t49 20h437zM187 103q29 0 49 -20t20 -47v-52
q0 -29 -20 -49t-49 -20h-54q-28 0 -47.5 20t-19.5 49v52q0 27 19.5 47t47.5 20h54zM890 103q28 0 47.5 -20t19.5 -47v-52q0 -29 -19.5 -49t-47.5 -20h-437q-29 0 -49 20t-20 49v52q0 27 20 47t49 20h437z" />
    <glyph glyph-name="uniE61E" unicode="&#xe61e;" 
d="M243 738q28 0 47.5 -19.5t19.5 -47.5v-114q0 -28 -19.5 -47.5t-47.5 -19.5h-114q-28 0 -47.5 19.5t-19.5 47.5v114q0 28 19.5 47.5t47.5 19.5h114zM559 738q28 0 47.5 -19.5t19.5 -47.5v-114q0 -28 -19.5 -47.5t-47.5 -19.5h-116q-28 0 -47.5 19.5t-19.5 47.5v114
q0 28 19.5 47.5t47.5 19.5h116zM871 738q28 0 47.5 -19.5t19.5 -47.5v-114q0 -28 -19.5 -47.5t-47.5 -19.5h-116q-28 0 -47.5 19.5t-19.5 47.5v114q0 28 19.5 47.5t47.5 19.5h116zM243 424q28 0 47.5 -19.5t19.5 -47.5v-114q0 -28 -19.5 -47.5t-47.5 -19.5h-114
q-28 0 -47.5 19.5t-19.5 47.5v114q0 28 19.5 47.5t47.5 19.5h114zM559 424q28 0 47.5 -19.5t19.5 -47.5v-114q0 -28 -19.5 -47.5t-47.5 -19.5h-116q-28 0 -47.5 19.5t-19.5 47.5v114q0 28 19.5 47.5t47.5 19.5h116zM871 424q28 0 47.5 -19.5t19.5 -47.5v-114
q0 -28 -19.5 -47.5t-47.5 -19.5h-116q-28 0 -47.5 19.5t-19.5 47.5v114q0 28 19.5 47.5t47.5 19.5h116zM243 110q28 0 47.5 -19.5t19.5 -47.5v-114q0 -28 -19.5 -47.5t-47.5 -19.5h-114q-28 0 -47.5 19.5t-19.5 47.5v114q0 28 19.5 47.5t47.5 19.5h114zM559 110
q28 0 47.5 -19.5t19.5 -47.5v-114q0 -28 -19.5 -47.5t-47.5 -19.5h-116q-28 0 -47.5 19.5t-19.5 47.5v114q0 28 19.5 47.5t47.5 19.5h116zM871 110q28 0 47.5 -19.5t19.5 -47.5v-114q0 -28 -19.5 -47.5t-47.5 -19.5h-116q-28 0 -47.5 19.5t-19.5 47.5v114q0 28 19.5 47.5
t47.5 19.5h116z" />
    <glyph glyph-name="uniE61F" unicode="&#xe61f;" 
d="M381 744q27 0 45.5 -18.5t18.5 -45.5v-256q0 -27 -18.5 -46t-45.5 -19h-256q-27 0 -45.5 19t-18.5 46v256q0 27 18.5 45.5t45.5 18.5h256zM381 231q27 0 45.5 -18t18.5 -45v-256q0 -27 -18.5 -46t-45.5 -19h-256q-27 0 -45.5 19t-18.5 46v256q0 27 18.5 45t45.5 18h256z
M894 744q27 0 45 -18.5t18 -45.5v-256q0 -27 -18 -46t-45 -19h-256q-27 0 -46 19t-19 46v256q0 27 19 45.5t46 18.5h256zM894 231q27 0 45 -18t18 -45v-256q0 -27 -18 -46t-45 -19h-256q-27 0 -46 19t-19 46v256q0 27 19 45t46 18h256z" />
  </font>
</defs>
</svg>
